<svg id="Layer_1" height="512" viewBox="0 0 512 512" width="512" xmlns="http://www.w3.org/2000/svg" data-name="Layer 1"><path d="m339.487 345.409a.746.746 0 0 0 .745.745h37.516a.746.746 0 0 0 .746-.745v-44.389a.747.747 0 0 0 -.746-.746h-37.516a.746.746 0 0 0 -.745.746v7.695h19.5a5 5 0 0 1 5 5v19a5 5 0 0 1 -5 5h-19.5z"/><path d="m339.487 318.715h14.503v8.998h-14.503z"/><path d="m460.745 154.136a10.055 10.055 0 0 0 -7.507 3.723l-22.678 27.67a7.472 7.472 0 0 1 -13.25-4.739v-126.323a10.027 10.027 0 0 0 -10.01-10.022 10.288 10.288 0 0 0 -10.247 10.055v83.387a5 5 0 0 1 -10 0v-107.287a9.592 9.592 0 0 0 -19.183-.093l-.1 25.008v84.325a5 5 0 0 1 -10 0v-84.34a10.064 10.064 0 0 0 -20.127-.075l-.128 81.486a5 5 0 1 1 -10 0v-49.231a10.009 10.009 0 1 0 -20.018 0v125.692c0 5.972 0 21.835 5.569 33.136a64.789 64.789 0 0 1 6.476 27.148c.273 10.3.209 23.852-.052 38.211h10v-10.847a10.758 10.758 0 0 1 10.745-10.746h37.516a10.758 10.758 0 0 1 10.746 10.746v44.389a10.757 10.757 0 0 1 -10.746 10.745h-37.519a10.758 10.758 0 0 1 -10.745-10.745v-9.542h-10.587c-.671 22.226-1.628 43.213-2.378 54.211-1.261 18.491-1.225 64.741 1.556 100.922h102.678c5.941-31.48-2.086-70.954-7.471-97.431-1.9-9.332-3.537-17.391-4.244-23.377-1.565-13.247-4.668-63.6-4.633-94.949a51.549 51.549 0 0 1 12.1-33.195l53.326-72.438a10.209 10.209 0 0 0 -1.334-12.31 10.015 10.015 0 0 0 -7.755-3.164zm-132.234 73.773a5 5 0 1 1 -10 0v-49.7a5 5 0 0 1 10 0zm0-66.9a5 5 0 1 1 -10 0v-2.362a5 5 0 0 1 10 0z"/><path d="m109.177 359.623h2.335a35.922 35.922 0 0 0 35.868-35.894v-46.722a25.068 25.068 0 1 1 50.135 0v171.772a35.868 35.868 0 1 0 71.736 0v-94.818a25.109 25.109 0 0 1 25.067-25.094h40.169v-10h-40.169a35.12 35.12 0 0 0 -35.067 35.094v94.818a25.868 25.868 0 1 1 -51.736 0v-171.772a35.068 35.068 0 1 0 -70.135 0v46.722a25.911 25.911 0 0 1 -25.868 25.894h-2.335a25.91 25.91 0 0 1 -25.867-25.9l-.137-174.323a37.657 37.657 0 0 0 32.479-36.869v-.031c0-9.28-2.8-15.949-6.19-23.095-5.424-11.437-26.262-42.214-27.151-43.518a5 5 0 0 0 -4.137-2.194 5 5 0 0 0 -4.137 2.191c-.888 1.308-21.807 32.164-27.161 43.533-2.991 6.356-6.183 13.906-6.183 23.115a37.474 37.474 0 0 0 32.481 36.88l.137 174.317a35.921 35.921 0 0 0 35.866 35.894z"/></svg>